<svg width="151" height="65" viewBox="0 0 151 65" fill="none" xmlns="http://www.w3.org/2000/svg">
<path d="M3.72265 53.1184H2.55932L3.72265 50.5557H5.35131L3.72265 53.1184ZM0 65.0001V54.2833H6.97997V55.6811H1.86132V58.7098H6.28197V60.1077H1.86132V63.3693H6.97997V64.7672H0V65.0001Z" fill="#C24239"/>
<path d="M14.658 56.38C14.1926 55.914 13.4946 55.6811 12.7966 55.6811H10.7026V63.6022H12.7966C13.4946 63.6022 14.1926 63.3692 14.658 62.9033C15.1233 62.2044 15.1233 61.0395 15.1233 59.6416C15.1233 58.0108 15.1233 56.8459 14.658 56.38ZM15.8213 63.8352C15.1233 64.5341 14.1926 64.7671 13.0293 64.7671H9.30664V54.0502H13.0293C14.1926 54.0502 15.1233 54.2832 15.8213 54.9821C16.9846 56.147 16.9846 57.7778 16.9846 59.1757C16.7519 61.0395 16.9846 62.6703 15.8213 63.8352Z" fill="#C24239"/>
<path d="M20.9399 54.0502H19.3113V64.7671H20.9399V54.0502Z" fill="#C24239"/>
<path d="M27.2219 55.6811V65.0001H25.5933V55.6811H22.8013V54.0502H30.2466V55.6811H27.2219Z" fill="#C24239"/>
<path d="M32.1078 65.0001V54.0502H39.0878V55.6811H33.7365V58.7097H38.1571V60.1076H33.7365V63.3692H39.0878V65.0001H32.1078Z" fill="#C24239"/>
<path d="M44.9044 65.0001C42.8104 65.0001 40.9491 63.6022 40.9491 61.2725V54.0502H42.5778V61.0395C42.5778 62.4373 43.5084 63.3692 44.9044 63.3692C46.3004 63.3692 47.2311 62.4373 47.2311 61.0395V54.0502H48.8597V61.2725C48.8597 63.6022 46.9984 65.0001 44.9044 65.0001Z" fill="#C24239"/>
<path d="M55.3744 55.6811H53.0477V58.9428H55.3744C56.5377 58.9428 57.2357 58.2439 57.2357 57.312C57.2357 56.1471 56.5377 55.6811 55.3744 55.6811ZM57.2357 65.0001L54.9091 60.5736H53.0477V65.0001H51.4191V54.2833H55.607C57.701 54.2833 58.8644 55.6811 58.8644 57.5449C58.8644 59.1758 57.9337 60.1077 56.7704 60.3406L59.3297 65.0001H57.2357Z" fill="#C24239"/>
<path d="M70.265 56.38C69.7997 55.914 69.1017 55.6811 68.4037 55.6811H66.3097V63.6022H68.4037C69.1017 63.6022 69.7997 63.3692 70.265 62.9033C70.7303 62.2044 70.7303 61.0395 70.7303 59.6416C70.963 58.0108 70.963 56.8459 70.265 56.38ZM71.4283 63.8352C70.7303 64.5341 69.7997 64.7671 68.6364 64.7671H64.9137V54.0502H68.6364C69.7997 54.0502 70.7303 54.2832 71.4283 54.9821C72.5917 56.147 72.5917 57.7778 72.5917 59.1757C72.5917 61.0395 72.5917 62.6703 71.4283 63.8352Z" fill="#C24239"/>
<path d="M74.9183 65.0001V54.0502H81.8983V55.6811H76.547V58.7097H80.9676V60.1076H76.547V63.3692H81.8983V65.0001H74.9183Z" fill="#C24239"/>
<path d="M87.9476 55.6811H85.621V59.1757H87.9476C89.111 59.1757 89.809 58.4768 89.809 57.3119C89.809 56.38 89.111 55.6811 87.9476 55.6811ZM88.1803 60.5735H85.621V64.7671H83.9923V54.0502H88.1803C90.2743 54.0502 91.6703 55.4481 91.6703 57.3119C91.6703 59.1757 90.2743 60.5735 88.1803 60.5735Z" fill="#C24239"/>
<path d="M97.2543 65.0001C95.1603 65.0001 93.299 63.6022 93.299 61.2725V54.0502H94.9276V61.0395C94.9276 62.4373 95.8583 63.3692 97.2543 63.3692C98.6503 63.3692 99.5809 62.4373 99.5809 61.0395V54.0502H101.21V61.2725C100.977 63.6022 99.3483 65.0001 97.2543 65.0001Z" fill="#C24239"/>
<path d="M105.397 54.0502H103.769V64.7671H105.397V54.0502Z" fill="#C24239"/>
<path d="M110.982 65C109.353 65 108.19 64.5341 107.259 63.6022L108.422 62.4373C109.12 63.1362 110.051 63.3692 111.214 63.3692C112.61 63.3692 113.541 62.6703 113.541 61.7384C113.541 61.2724 113.308 60.8065 113.076 60.5735C112.843 60.3405 112.61 60.1076 111.912 60.1076L110.749 59.8746C109.818 59.6416 109.12 59.4086 108.655 58.9427C108.19 58.4767 107.957 57.7778 107.957 56.8459C107.957 54.9821 109.353 53.5843 111.447 53.5843C112.843 53.5843 113.774 54.0502 114.704 54.7491L113.774 55.681C113.076 54.9821 112.378 54.7491 111.447 54.7491C110.284 54.7491 109.586 55.4481 109.586 56.38C109.586 56.8459 109.818 57.0789 110.051 57.3119C110.284 57.5448 110.749 57.7778 111.214 57.7778L112.378 58.0108C113.308 58.2438 114.006 58.4767 114.472 58.7097C114.937 59.1757 115.402 60.1076 115.402 60.8065C114.937 63.8352 113.308 65 110.982 65Z" fill="#C24239"/>
<path d="M123.08 65.0001V55.914L120.986 57.7778V55.914L123.08 54.0502H124.476V65.0001H123.08Z" fill="#C24239"/>
<path d="M131.224 55.4481C130.293 55.4481 129.595 56.147 129.595 57.0789C129.595 58.0108 130.293 58.7098 131.224 58.7098C132.154 58.7098 132.852 58.0108 132.852 57.0789C132.852 56.147 132.154 55.4481 131.224 55.4481ZM131.224 60.1076C130.293 60.1076 129.362 60.8065 129.362 61.9714C129.362 62.9033 130.06 63.8352 131.224 63.8352C132.154 63.8352 133.085 63.1363 133.085 61.9714C133.085 60.8065 132.387 60.1076 131.224 60.1076ZM131.224 65.0001C129.362 65.0001 127.966 63.8352 127.966 61.9714C127.966 60.8065 128.664 59.8746 129.362 59.4087C128.664 58.9427 127.966 58.2438 127.966 57.0789C127.966 55.2151 129.362 54.0503 130.991 54.0503C132.852 54.0503 134.016 55.2151 134.016 57.0789C134.016 58.2438 133.317 58.9427 132.62 59.4087C133.317 59.8746 134.016 60.5736 134.016 61.9714C134.714 63.8352 133.085 65.0001 131.224 65.0001Z" fill="#C24239"/>
<path d="M139.134 65.0001C137.505 65.0001 135.877 64.0682 135.877 61.9714H137.505C137.505 63.1363 138.436 63.6022 139.367 63.6022C140.297 63.6022 141.228 62.9033 141.228 61.7384C141.228 60.5736 140.53 59.8746 139.367 59.8746H139.134V58.4768C140.297 58.4768 140.763 57.7779 140.763 56.846C140.763 55.6811 140.065 55.2151 139.134 55.2151C138.203 55.2151 137.505 55.9141 137.505 56.846H135.877C135.877 54.9822 137.273 53.8173 139.134 53.8173C140.995 53.8173 142.159 54.9822 142.159 56.846C142.159 58.0108 141.693 58.7098 140.763 59.1757C141.693 59.6417 142.391 60.3406 142.391 61.7384C142.624 63.8352 140.995 65.0001 139.134 65.0001Z" fill="#C24239"/>
<path d="M147.277 59.8746C146.347 59.8746 145.649 60.5735 145.649 61.7384C145.649 62.9032 146.347 63.6022 147.277 63.6022C148.208 63.6022 148.906 62.9032 148.906 61.7384C148.906 60.5735 148.441 59.8746 147.277 59.8746ZM147.277 65C145.416 65 144.02 63.8351 144.02 61.7384C144.02 60.8065 144.253 60.1075 144.718 59.1756L147.045 54.2832H148.673L146.347 58.9427C146.579 58.7097 147.045 58.7097 147.277 58.7097C148.906 58.7097 150.069 59.8746 150.069 61.7384C150.535 63.6022 149.139 65 147.277 65Z" fill="#C24239"/>
<path d="M4.18798 9.552C4.18798 4.42655 4.65332 3.49465 6.74731 3.49465C8.1433 3.49465 9.07396 3.9606 9.53929 4.19358L10.7026 0.931929C9.53929 0.465979 8.60863 3.05176e-05 6.28197 3.05176e-05C4.42065 3.05176e-05 3.02466 0.46598 2.09399 1.63085C0.697999 3.26168 0.465332 5.59143 0.465332 9.552C0.465332 13.5126 0.697999 16.0753 2.09399 17.4731C3.02466 18.405 4.42065 18.871 6.28197 18.871C8.37597 18.871 9.77196 18.1721 10.7026 17.9391L9.53929 14.9104C8.8413 15.1434 7.91063 15.6093 6.51464 15.6093C4.42065 15.3764 4.18798 14.4445 4.18798 9.552ZM29.3159 14.6774L25.8259 14.9104L26.9892 9.552L27.6872 6.29035L28.3852 9.552L29.3159 14.6774ZM33.7365 37.043H43.2758V34.0144H37.2265V18.871H33.7365L29.5485 0.46598H25.8259L21.6379 18.871H25.1279L29.3159 14.9104L30.0139 18.871H33.5039V37.043H33.7365ZM46.3005 18.638H56.0724V15.6093H49.7905V0.46598H46.3005V18.638ZM77.245 18.638H80.5023V0.233004H76.3143L74.453 8.15415L73.755 11.6488L73.057 8.15415L71.4284 0.233004H67.0077V18.638H63.7504L65.1464 17.0072H61.1911L60.2604 18.405H57.9338V36.8101H67.2404V33.7814H61.4237V29.1219H65.8444V25.8602H61.4237V21.8997H67.0077V18.638H70.0324V7.92118L70.4977 10.4839L72.359 18.638H75.151L77.0123 10.4839L77.4777 7.92118V18.638H77.245ZM88.413 37.043L92.6009 18.638H89.111L87.2496 27.724L86.5516 30.9857L85.8536 27.724L83.9923 18.638H80.5023L84.6903 37.043H88.413ZM100.279 14.6774L97.0216 14.9104L98.1849 9.552L98.8829 6.29035L99.5809 9.552L100.279 14.6774ZM104.7 18.638L100.512 0.233004H96.7889L92.6009 18.638H96.0909L100.279 14.6774L100.977 18.638H104.7ZM124.476 18.638H127.501V0.233004H124.243V10.2509L123.313 7.92118L120.521 0.46598H117.031V18.871H113.541L110.982 26.3262L108.422 18.871H104.7L109.12 31.2187V37.043H112.61V31.2187L117.031 18.871H120.288V8.15415L121.219 10.2509L124.476 18.638ZM151 18.638V0.233004H147.743V10.2509L146.812 7.92118L143.787 0.46598H140.297V18.871H143.555V8.15415L144.485 10.2509L147.975 18.638H151Z" fill="#C24239"/>
</svg>
